<svg width="12" height="12" viewBox="0 0 12 12" fill="none" xmlns="http://www.w3.org/2000/svg">
<g clip-path="url(#clip0_314_66275)">
<path d="M1.47053 7.88602H0.764648V1.66375C0.764835 1.48044 0.839265 1.3047 0.971603 1.17508C1.10394 1.04546 1.28338 0.972565 1.47053 0.972382H7.82347V1.66375H1.47053V7.88602ZM7.47053 6.15761C7.67995 6.15761 7.88466 6.09679 8.05878 5.98284C8.2329 5.86889 8.36862 5.70692 8.44876 5.51743C8.5289 5.32793 8.54987 5.11942 8.50901 4.91825C8.46816 4.71708 8.36731 4.5323 8.21923 4.38726C8.07115 4.24223 7.88249 4.14346 7.6771 4.10345C7.47171 4.06343 7.25881 4.08397 7.06534 4.16246C6.87186 4.24095 6.7065 4.37387 6.59015 4.54441C6.47381 4.71496 6.41171 4.91546 6.41171 5.12057C6.41199 5.39552 6.52363 5.65914 6.72214 5.85357C6.92065 6.04799 7.1898 6.15734 7.47053 6.15761ZM7.47053 4.77488C7.54034 4.77488 7.60857 4.79516 7.66662 4.83314C7.72466 4.87113 7.76989 4.92511 7.79661 4.98828C7.82332 5.05145 7.83031 5.12095 7.81669 5.18801C7.80307 5.25506 7.76946 5.31666 7.7201 5.365C7.67074 5.41335 7.60785 5.44627 7.53939 5.45961C7.47092 5.47295 7.39996 5.4661 7.33547 5.43994C7.27098 5.41377 7.21585 5.36946 7.17707 5.31262C7.13829 5.25577 7.11759 5.18894 7.11759 5.12057C7.11759 5.02889 7.15477 4.94096 7.22096 4.87613C7.28715 4.8113 7.37693 4.77488 7.47053 4.77488Z" fill="#FF9A9A"/>
<path d="M9.94106 2.70078H3.23518C3.04802 2.70096 2.86859 2.77386 2.73625 2.90347C2.60391 3.03309 2.52948 3.20883 2.5293 3.39214V9.9601C2.52948 10.1434 2.60391 10.3191 2.73625 10.4488C2.86859 10.5784 3.04802 10.6513 3.23518 10.6515H9.94106C10.1282 10.6513 10.3077 10.5784 10.44 10.4488C10.5723 10.3191 10.6468 10.1434 10.6469 9.9601V3.39214C10.6468 3.20883 10.5723 3.03309 10.44 2.90347C10.3077 2.77386 10.1282 2.70096 9.94106 2.70078ZM9.94106 9.9601H3.23518V7.88601L4.64694 6.50432L6.61847 8.4353C6.75085 8.56491 6.93036 8.63772 7.11753 8.63772C7.30471 8.63772 7.48422 8.56491 7.61659 8.4353L8.17636 7.88704L9.94106 9.61442V9.9601ZM9.94106 8.63683L8.67541 7.39721C8.54304 7.2676 8.36353 7.19479 8.17636 7.19479C7.98918 7.19479 7.80967 7.2676 7.6773 7.39721L7.11753 7.94546L5.146 6.01448C5.01363 5.88487 4.83412 5.81206 4.64694 5.81206C4.45977 5.81206 4.28026 5.88487 4.14789 6.01448L3.23518 6.90842V3.39214H9.94106V8.63683Z" fill="#FF9A9A"/>
</g>
<defs>
<clipPath id="clip0_314_66275">
<rect width="11.2941" height="11.0618" fill="white" transform="translate(0.0585938 0.281006)"/>
</clipPath>
</defs>
</svg>
