<svg width="11" height="11" viewBox="0 0 11 11" fill="none" xmlns="http://www.w3.org/2000/svg">
<g clip-path="url(#clip0_262_10436)">
<path d="M9.81466 3.21613H1.18577C1.03342 3.21613 0.887308 3.2754 0.779579 3.38092C0.67185 3.48643 0.611328 3.62954 0.611328 3.77876V9.23746C0.611328 9.38668 0.67185 9.52979 0.779579 9.6353C0.887308 9.74081 1.03342 9.80009 1.18577 9.80009H9.81466C9.96701 9.80009 10.1131 9.74081 10.2209 9.6353C10.3286 9.52979 10.3891 9.38668 10.3891 9.23746V3.77876C10.3891 3.62954 10.3286 3.48643 10.2209 3.38092C10.1131 3.2754 9.96701 3.21613 9.81466 3.21613ZM9.778 9.20155H1.22244V3.81467H9.778V9.20155Z" fill="#855CF8"/>
<path d="M2.61589 6.04425C2.79719 6.04425 2.97441 5.9916 3.12516 5.89294C3.2759 5.79429 3.39339 5.65407 3.46277 5.49002C3.53216 5.32597 3.55031 5.14544 3.51494 4.97129C3.47957 4.79713 3.39226 4.63715 3.26407 4.51159C3.13587 4.38603 2.97253 4.30052 2.79472 4.26588C2.6169 4.23124 2.43259 4.24902 2.26509 4.31697C2.09759 4.38492 1.95443 4.5 1.85371 4.64764C1.75298 4.79529 1.69922 4.96887 1.69922 5.14644C1.69922 5.38456 1.7958 5.61292 1.9677 5.78129C2.13961 5.94966 2.37277 6.04425 2.61589 6.04425ZM2.61589 4.66761C2.71306 4.66523 2.80876 4.69127 2.89075 4.74242C2.97274 4.79357 3.0373 4.86749 3.07618 4.95475C3.11506 5.04201 3.12651 5.13864 3.10904 5.2323C3.09158 5.32596 3.04601 5.4124 2.97815 5.48056C2.91029 5.54873 2.82322 5.59554 2.72807 5.61501C2.63292 5.63448 2.534 5.62572 2.44395 5.58985C2.3539 5.55399 2.27682 5.49265 2.22254 5.41367C2.16826 5.33469 2.13925 5.24165 2.13922 5.14644C2.13918 5.02149 2.18901 4.90148 2.27806 4.81202C2.36712 4.72255 2.48835 4.67073 2.61589 4.66761Z" fill="#855CF8"/>
<path d="M2.41359 8.603L4.24693 6.80737L5.21859 7.75905L4.35693 8.603H4.96804L7.24748 6.37043L9.16637 8.23489V7.63635L7.39415 5.90956C7.35352 5.87008 7.2986 5.84793 7.24137 5.84793C7.18414 5.84793 7.12923 5.87008 7.08859 5.90956L5.51193 7.45379L4.39054 6.35846C4.34991 6.31899 4.29499 6.29684 4.23776 6.29684C4.18053 6.29684 4.12562 6.31899 4.08498 6.35846L1.80859 8.603H2.41359Z" fill="#855CF8"/>
<path d="M9.20931 1.12123C9.20931 1.04186 9.17712 0.965739 9.11981 0.909615C9.06251 0.853491 8.98479 0.82196 8.90375 0.82196H2.18153C2.10049 0.82196 2.02277 0.853491 1.96547 0.909615C1.90817 0.965739 1.87598 1.04186 1.87598 1.12123V1.4205H9.20931V1.12123Z" fill="#855CF8"/>
<path d="M9.81434 2.31831C9.81434 2.23894 9.78215 2.16282 9.72485 2.1067C9.66755 2.05057 9.58983 2.01904 9.50879 2.01904H1.56434C1.48331 2.01904 1.40559 2.05057 1.34828 2.1067C1.29098 2.16282 1.25879 2.23894 1.25879 2.31831V2.61759H9.81434V2.31831Z" fill="#855CF8"/>
</g>
<defs>
<clipPath id="clip0_262_10436">
<rect width="11" height="10.7738" fill="white" transform="translate(0 0.223419)"/>
</clipPath>
</defs>
</svg>
