<svg width="11" height="12" viewBox="0 0 11 12" fill="none" xmlns="http://www.w3.org/2000/svg">
<path d="M8.43839 2.785L7.33381 3.86686V3.94767L8.43839 5.02953H10.0838V5.92734H8.06256L7.33381 5.21358V6.37625H6.87548C6.63236 6.37625 6.3992 6.28166 6.2273 6.11329C6.05539 5.94491 5.95881 5.71655 5.95881 5.47844V4.35617H4.51964C4.47839 4.52227 4.40964 4.67938 4.31798 4.82752L6.95798 9.5186H9.16714C9.41026 9.5186 9.64342 9.61319 9.81532 9.78156C9.98723 9.94993 10.0838 10.1783 10.0838 10.4164V10.8653H0.917144V10.4164C0.917144 10.1783 1.01372 9.94993 1.18563 9.78156C1.35754 9.61319 1.5907 9.5186 1.83381 9.5186H4.86339L2.71381 5.70289C2.31245 5.69624 1.92438 5.56095 1.609 5.31772C1.29362 5.0745 1.06831 4.73675 0.96756 4.35617C0.907703 4.12743 0.894496 3.88938 0.928696 3.65564C0.962896 3.42189 1.04383 3.19705 1.16687 2.99399C1.2899 2.79092 1.45262 2.61361 1.64572 2.47222C1.83881 2.33083 2.05847 2.22813 2.29214 2.17C3.26839 1.9231 4.26756 2.4977 4.51964 3.45836H5.95881V2.33609C5.95881 2.09798 6.05539 1.86961 6.2273 1.70124C6.3992 1.53287 6.63236 1.43828 6.87548 1.43828H7.33381V2.60095L8.06256 1.88718H10.0838V2.785H8.43839ZM2.75048 3.00945C2.50736 3.00945 2.2742 3.10404 2.1023 3.27241C1.93039 3.44079 1.83381 3.66915 1.83381 3.90726C1.83381 4.14538 1.93039 4.37374 2.1023 4.54211C2.2742 4.71049 2.50736 4.80508 2.75048 4.80508C2.99359 4.80508 3.22675 4.71049 3.39866 4.54211C3.57057 4.37374 3.66714 4.14538 3.66714 3.90726C3.66714 3.66915 3.57057 3.44079 3.39866 3.27241C3.22675 3.10404 2.99359 3.00945 2.75048 3.00945Z" fill="#E89856"/>
</svg>
