<svg width="12" height="12" viewBox="0 0 12 12" fill="none" xmlns="http://www.w3.org/2000/svg">
<g clip-path="url(#clip0_262_10444)">
<path d="M8.87863 4.27174H7.29098V3.06229H7.9966V0.988953H5.87973V1.68006H2.52801V0.988953H0.411133V3.06229H1.11676V6.34507H0.411133V8.41841H2.52801V7.7273H4.11566V9.2823H3.41004V11.3556H5.52691V10.6645H8.87863V11.3556H10.9955V9.2823H10.2899V5.65396H10.9955V3.58062H8.87863V4.27174ZM6.58535 1.68006H7.29098V2.37118H6.58535V1.68006ZM7.29098 7.03618V7.7273H6.58535V7.03618H7.29098ZM1.11676 1.68006H1.82238V2.37118H1.11676V1.68006ZM1.82238 7.7273H1.11676V7.03618H1.82238V7.7273ZM2.52801 7.03618V6.34507H1.82238V3.06229H2.52801V2.37118H5.87973V3.06229H6.58535V6.34507H5.87973V7.03618H2.52801ZM4.82129 10.6645H4.11566V9.97341H4.82129V10.6645ZM10.2899 10.6645H9.58426V9.97341H10.2899V10.6645ZM9.58426 4.27174H10.2899V4.96285H9.58426V4.27174ZM9.58426 9.2823H8.87863V9.97341H5.52691V9.2823H4.82129V7.7273H5.87973V8.41841H7.9966V6.34507H7.29098V4.96285H8.87863V5.65396H9.58426V9.2823Z" fill="#0080FF"/>
</g>
<defs>
<clipPath id="clip0_262_10444">
<rect width="11.29" height="11.0578" fill="white" transform="translate(0.0585938 0.643402)"/>
</clipPath>
</defs>
</svg>
