<svg width="11" height="12" viewBox="0 0 11 12" fill="none" xmlns="http://www.w3.org/2000/svg">
<g clip-path="url(#clip0_262_35695)">
<path fill-rule="evenodd" clip-rule="evenodd" d="M1.03297 7.49598H2.74811L3.4375 0.688477H0.34375L1.03297 7.49598Z" fill="#2637CF"/>
<path d="M1.89049 10.7889C2.61799 10.7889 3.20774 10.2126 3.20774 9.50174C3.20774 8.79088 2.61799 8.21461 1.89049 8.21461C1.163 8.21461 0.573242 8.79088 0.573242 9.50174C0.573242 10.2126 1.163 10.7889 1.89049 10.7889Z" fill="#2637CF"/>
<path fill-rule="evenodd" clip-rule="evenodd" d="M6.9178 0.69925C4.91769 0.821297 3.87252 1.93049 3.78125 3.93676H5.79906C5.82433 3.24169 6.22033 2.72219 6.95767 2.64577C7.68144 2.57052 8.36791 2.73919 8.57587 3.22385C8.80052 3.74738 8.29623 4.35576 8.05647 4.61113C7.61269 5.08467 6.89202 5.43011 6.51836 5.94119C6.15209 6.44166 6.08695 7.10038 6.05877 7.90656H7.83698C7.86191 7.3911 7.89697 6.89736 8.13639 6.57701C8.52586 6.0565 9.10748 5.81258 9.59492 5.40149C10.0605 5.00859 10.5504 4.53504 10.6336 3.80226C10.883 1.60862 9.05489 0.568787 6.9178 0.69925Z" fill="#2637CF"/>
<path d="M6.96351 10.7887C7.58355 10.7887 8.0862 10.3039 8.0862 9.70578C8.0862 9.10769 7.58355 8.62285 6.96351 8.62285C6.34346 8.62285 5.84082 9.10769 5.84082 9.70578C5.84082 10.3039 6.34346 10.7887 6.96351 10.7887Z" fill="#2637CF"/>
</g>
<defs>
<clipPath id="clip0_262_35695">
<rect width="11" height="10.7738" fill="white" transform="translate(0 0.351791)"/>
</clipPath>
</defs>
</svg>
