<svg width="11" height="12" viewBox="0 0 11 12" fill="none" xmlns="http://www.w3.org/2000/svg">
<g clip-path="url(#clip0_262_23070)">
<path d="M4.125 4.35617H4.8125V5.70289H4.125V4.35617ZM6.1875 7.04961H7.5625V7.72297H6.1875V7.04961ZM4.8125 7.04961V6.37625H4.125V7.72297H5.5V7.04961H4.8125ZM5.5 2.33609H9.625V6.37625H5.5V2.33609Z" fill="#AB67C2"/>
<path d="M6.14797 11.0888L4.06278 9.79086L1.375 10.4127V2.33609H4.8125V3.68281H4.125V3.00945H2.0625V9.56158L4.18722 9.07003L6.22703 10.34L7.84369 9.74305H8.9375V7.72297H8.25V7.04961H9.625V10.4164H7.96881L6.14797 11.0888Z" fill="#AB67C2"/>
</g>
<defs>
<clipPath id="clip0_262_23070">
<rect width="11" height="10.7738" fill="white" transform="translate(0 0.989365)"/>
</clipPath>
</defs>
</svg>
