<svg width="12" height="12" viewBox="0 0 12 12" fill="none" xmlns="http://www.w3.org/2000/svg">
<g clip-path="url(#clip0_262_18861)">
<path d="M3.26725 11.4172H4.18392V10.5194H3.26725V11.4172ZM5.55892 6.4792C6.31975 6.4792 6.92934 5.87766 6.92934 5.13248L6.93392 2.43904C6.93392 1.69385 6.31975 1.09232 5.55892 1.09232C4.79809 1.09232 4.18392 1.69385 4.18392 2.43904V5.13248C4.18392 5.87766 4.79809 6.4792 5.55892 6.4792ZM5.10059 11.4172H6.01725V10.5194H5.10059V11.4172ZM6.93392 11.4172H7.85059V10.5194H6.93392V11.4172ZM8.76725 5.13248H7.98809C7.98809 6.4792 6.82392 7.4219 5.55892 7.4219C4.29392 7.4219 3.12975 6.4792 3.12975 5.13248H2.35059C2.35059 6.66325 3.59725 7.92916 5.10059 8.14913V9.62154H6.01725V8.14913C7.52059 7.92916 8.76725 6.66325 8.76725 5.13248Z" fill="#FF6492"/>
</g>
<defs>
<clipPath id="clip0_262_18861">
<rect width="11" height="10.7738" fill="white" transform="translate(0.0585938 0.643402)"/>
</clipPath>
</defs>
</svg>
